<?xml version="1.0"?>
<svg xmlns="http://www.w3.org/2000/svg" id="Capa_1" enable-background="new 0 0 512.087 512.087" height="512px" viewBox="0 0 512.087 512.087" width="512px"><g><g><g><g><path d="m341.604 140.219v4.79c-1.76 49.09-40.38 88.76-88.82 88.81-47.78 0-88.82-39.58-88.82-88.81v-4.81l24.62-47.67h23.89l31.4-31.27c.237 17.113 14.593 31.27 31.71 31.27h41.39z" fill="#ffdad5" data-original="#FFDAD5"/></g><g><path d="m297.312 284.468c-11.328 14.427-27.926 21.65-44.524 21.65s-33.196-7.223-44.534-21.65l8.94-58.073c10.894 4.776 22.933 7.421 35.594 7.421s24.69-2.645 35.584-7.421z" fill="#ffdad5" data-original="#FFDAD5"/></g><g><path d="m455.934 502.09h-399.775l3.494-102.489c2.445-44.757 31.353-84.275 74.198-97.432l59.64-17.701h14.763c11.338 14.427 27.936 21.65 44.534 21.65s33.196-7.223 44.524-21.65h20.269l57.64 17.701c42.844 13.157 73.753 52.674 76.198 97.432z" fill="#a0e4a5" data-original="#A0E4A5"/></g><g><path d="m159.284 426.796c0-53.489-7.094-101.97-19.308-143.206-1.632-5.511-7.563-8.512-12.972-6.569l-27.717 9.956c-4.957 1.781-7.691 7.1-6.231 12.161 5.418 18.782 16.873 65.808 16.873 127.659h49.355z" fill="#ff7d95" data-original="#FF7D95"/></g><g><path d="m109.929 426.796v11.713c0 13.629 11.048 24.677 24.677 24.677 13.629 0 24.677-11.048 24.677-24.677v-11.713z" fill="#ff7d95" data-original="#FF7D95"/></g><g><path d="m346.644 426.796c0-53.489 7.095-101.97 19.308-143.206 1.632-5.511 7.563-8.512 12.972-6.569l27.717 9.956c4.957 1.781 7.691 7.1 6.231 12.161-5.418 18.782-16.868 65.808-16.868 127.659h-49.36z" fill="#ff7d95" data-original="#FF7D95"/></g><g><path d="m396.004 426.796v11.713c0 13.629-11.048 24.677-24.677 24.677h-.005c-13.629 0-24.677-11.048-24.677-24.677v-11.713z" fill="#ff7d95" data-original="#FF7D95"/></g><g><path d="m252.784 16.779c-27.21 0-47.2 7.37-68.21 7.37-21 0-32.24-14.06-32.24-14.06-2.72 7.86-4.85 15.07-6.51 21.67-3.175 12.663-1.099 25.16 4.65 35.497 6.688 12.027 10.784 25.32 11.56 39.06l1.916 33.902 24.629-47.689h23.897l31.395-31.27c.387 17.105 14.496 31.27 31.715 31.27h41.383l24.629 47.689 1.662-29.409c1.51-26.728-8.861-52.985-28.896-70.739-20.215-17.914-45.054-23.291-61.58-23.291z" fill="#838eb1" data-original="#838EB1"/></g><g><path d="m330.694 292.039c0 28.71-34.93 52.99-78.03 52.99-43.09 0-78.02-24.28-78.02-52.99 0-.6.02-1.2.05-1.8l18.8-5.77h14.76c11.34 14.43 27.94 21.65 44.53 21.65 16.6 0 33.2-7.22 44.53-21.65h20.27l12.92 3.97c.13 1.19.19 2.39.19 3.6z" fill="#a0e4a5" data-original="#A0E4A5"/></g></g><path d="m455.934 512.087c5.605 0 10.237-4.833 9.99-10.44l-4.52-102.488c-.001-.035-.003-.069-.005-.104-1.779-32.664-17.122-62.969-42.366-84.124 1.305-5.348 2.497-9.729 3.447-13.022 2.911-10.095-2.562-20.787-12.459-24.343l-27.716-9.956c-10.665-3.832-22.729 2.292-25.941 13.141-.465 1.571-.904 3.163-1.353 4.747l-33.613-10.318c-1.254-.385-2.487-.71-3.814-.71h-11.694l-6.557-42.595c30.126-16.553 50.91-48.736 52.265-86.507.004-.12.006-.239.006-.358v-4.598l1.641-29.038c2.948-52.172-35.342-95.965-86.446-103.494-18.078-2.663-36.364.08-54.227 3.079-16.896 2.837-39.554 7.943-52.455-7.149-2.239-2.9-5.823-4.259-9.442-3.676-3.634.587-6.587 3.207-7.792 6.686-2.667 7.708-4.941 15.278-6.76 22.509-3.644 14.534-1.651 29.73 5.61 42.789 6.168 11.092 9.639 22.789 10.316 34.764l1.914 33.868v4.261c0 36.082 20.641 69.755 52.255 86.95l-6.544 42.51h-6.181c-.944 0-1.92.141-2.826.408l-39.463 11.627c-.54-1.923-1.076-3.849-1.64-5.754-3.213-10.847-15.276-16.973-25.941-13.141l-27.716 9.956c-9.898 3.556-15.371 14.249-12.459 24.343 1.104 3.829 2.536 9.125 4.092 15.708-22.753 21.058-36.142 49.74-37.872 81.437-.003.068-.006.136-.009.204l-3.5 102.488c-.191 5.567 4.423 10.341 9.994 10.341h157.377c5.523 0 10-4.477 10-10s-4.477-10-10-10h-68.925v-20.378c14.26-4.303 24.677-17.556 24.677-33.201 0-32.836-1.379-65.519-6.435-98.012-1.806-11.608-4.002-23.167-6.661-34.611l9.793-2.885c7.27 29.526 43.373 52.029 86.683 52.029 43.947 0 80.474-23.163 86.994-53.324l10.328 3.17c-9.327 39.729-13.287 80.638-13.341 121.408-.005 4.075-.001 8.151-.001 12.226 0 15.645 10.417 28.897 24.68 33.201v20.377h-59.85c-5.523 0-10 4.477-10 10s4.477 10 10 10h154.462zm-325.546-225.657c9.692 32.721 15.182 66.631 17.537 100.646.685 9.892 1.108 19.805 1.276 29.72h-29.369c-.035-1.803-.083-3.587-.136-5.362-1.177-38.776-6.258-77.726-17.027-115.046zm-63.887 205.657 3.144-92.041c1.224-22.054 9.195-42.339 22.801-58.619 5.005 28.155 7.484 56.777 7.484 85.371v11.71c0 15.645 10.417 28.898 24.677 33.201v20.377h-58.106zm68.105-38.901c-8.093 0-14.677-6.584-14.677-14.677v-1.71h29.354v1.71c.001 8.093-6.583 14.677-14.677 14.677zm20.915-418.988c.601-2.386 1.256-4.818 1.964-7.284 18.142 10.503 38.738 7.069 58.398 3.768 15.478-2.598 31.446-5.282 47.147-3.165 38.374 5.174 68.638 35.685 70.301 74.891l-7.473-14.469c-1.716-3.323-5.144-5.411-8.885-5.411h-.004-41.383c-11.661 0-21.554-9.743-21.714-21.408-.118-8.618-10.934-13.044-17.059-6.946l-28.47 28.354h-19.76-.005c-3.741 0-7.168 2.088-8.885 5.411l-7.857 15.214c-1.175-14.101-5.417-27.799-12.623-40.758-4.783-8.6-6.093-18.617-3.692-28.197zm18.443 110.811v-2.38l20.71-40.1h17.799.003c2.645 0 5.183-1.048 7.057-2.915l15.657-15.594 3.574-3.559c7.219 13.501 21.552 22.007 36.824 22.067h35.292l20.725 40.129v2.167c-1.651 43.577-35.21 77.845-76.85 78.942-43.329 1.049-80.791-35.373-80.791-78.757zm74.804 98.721c10.632.421 21.348-.831 31.569-3.801l6.39 41.508c-13.83 14.747-36.075 18.698-54.266 10.043-5.118-2.435-9.75-5.92-13.622-10.048l6.389-41.503c7.655 2.222 15.577 3.474 23.54 3.801zm53.427 77.317c-13.182 9.017-30.772 13.982-49.531 13.982-18.755 0-36.343-4.966-49.522-13.982-9.87-6.752-16.071-14.97-17.917-23.58l9.769-2.998h8.634c19.994 21.911 53.569 28.032 79.899 14.162 6.903-3.636 13.152-8.391 18.415-14.162h9.14l9.333 1.332c-1.365 9.212-7.714 18.059-18.22 25.246zm101.069-24.681c-10.768 37.327-15.868 76.512-17.032 115.277-.051 1.707-.096 3.421-.13 5.153h-29.375c.581-34.394 4.127-68.828 11.609-102.426 2.091-9.389 4.474-18.715 7.207-27.938zm-46.62 142.143v-1.71h29.36v1.71c0 8.093-6.584 14.677-14.683 14.677-8.093 0-14.677-6.584-14.677-14.677zm24.68 33.202c14.262-4.302 24.68-17.556 24.68-33.202v-11.71c0-29.828 2.688-59.698 8.144-89.026 16.067 16.911 26.01 39.258 27.278 62.321l4.057 91.993h-64.159z" data-original="#000000" class="active-path" style="fill:#202095" data-old_color="#000000"/><path d="m261.93 175.887c5.523 0 10-4.477 10-10s-4.477-10-10-10h-4.602l4.98-15.591c1.681-5.261-1.222-10.888-6.483-12.569-5.262-1.68-10.888 1.223-12.569 6.483l-9.147 28.634c-.971 3.041-.433 6.363 1.45 8.941s4.883 4.102 8.076 4.102z" data-original="#000000" class="active-path" style="fill:#202095" data-old_color="#000000"/><path d="m261.874 492.86c-3.629-1.488-7.902-.699-10.745 2.012-3.271 3.118-3.996 8.221-1.775 12.143 4.467 7.89 16.703 5.899 18.494-2.973.932-4.623-1.629-9.372-5.974-11.182z" data-original="#000000" class="active-path" style="fill:#202095" data-old_color="#000000"/></g></g> </svg>
